<?xml version="1.0" encoding="UTF-8" standalone="no"?>
<!DOCTYPE svg PUBLIC "-//W3C//DTD SVG 20010904//EN"
"http://www.w3.org/TR/2001/REC-SVG-20010904/DTD/svg10.dtd">
<svg xmlns="http://www.w3.org/2000/svg" xmlns:xlink="http://www.w3.org/1999/xlink" width="96" height="96">
  <defs>
    <linearGradient id="a">
      <stop offset="0" stop-color="#7fa8e3" stop-opacity=".741176"/>
      <stop offset="1" stop-color="#fff" stop-opacity="0"/>
    </linearGradient>
    <linearGradient xlink:href="#a" id="b" x1="50.6438866" x2="35.7520943" y1="5.36792946" y2="68.0443573" gradientUnits="userSpaceOnUse" spreadMethod="pad"/>
  </defs>
  <path fill-opacity=".301471" fill-rule="evenodd" d="M8.98359932 79.45308796c-2.70999472-1.23185633-6.40537416-5.17359588-4.43448209-10.59358533.98538472-5.91255359 18.7234134-58.14118803 22.66526445-60.6047892 2.46348967-2.21722989 6.03586187-3.07951817 11.08626097-1.7245208 4.18813312.9854516 41.8813312 10.83996774 44.09853879 12.81078177 2.21731908 1.97092552 3.94185104 3.5722607 2.21731908 7.8835906-1.23174483 2.2172076-15.89037798 51.9821294-16.13666006 55.18491124-.98546276 3.44906392-3.81854277 7.63719704-8.49946302 7.39080348-4.68080875-.24639356-47.5477142-9.60812256-50.99677812-10.34719176z"/>
  <path fill="#3d4e67" fill-rule="evenodd" d="M6.12646032 74.88165996C3.4164656 73.64980363-.27891384 69.70806408 1.69197823 64.28807463c.98538472-5.91255359 18.7234134-58.14118803 22.66526445-60.6047892 2.46348967-2.21722989 6.03586187-3.07951817 11.08626097-1.7245208 4.18813312.9854516 41.8813312 10.83996774 44.09853879 12.81078177 2.21731908 1.97092552 3.94185104 3.5722607 2.21731908 7.8835906-1.23174483 2.2172076-15.89037798 51.9821294-16.13666006 55.18491124-.98546276 3.44906392-3.81854277 7.63719704-8.49946302 7.39080348-4.68080875-.24639356-47.5477142-9.60812256-50.99677812-10.34719176z"/>
  <path fill="#fff" fill-rule="evenodd" d="M11.79284333 70.69352684c-2.83308002-.7390692-6.89823934-1.47824989-5.41998945-5.91266508 2.70999472-10.8398674 16.5062504-52.47491652 22.418804-57.6485124 1.3550531-1.23185633 5.91266508-1.72453196 14.53532488.98546276 9.85451613 2.9562768 29.80971896 9.60801107 31.78064448 10.59347383 1.97081404.98546277 2.70999473.98546277 1.23174484 5.41998945-2.2172076 4.43452668-12.07161223 42.37411832-14.53532488 48.77945904-1.72442047 4.55772346-2.09401082 6.65173427-5.0503991 6.65173427"/>
  <path fill="url(#b)" fill-rule="evenodd" d="M28.75 13.75s3.125-6.25005 10.9375-4.37505C47.5 11.25 78.125 19.375 77.8125 21.875s-5.9375 17.1875-6.25 18.4375-29.0625.625-40 7.1875S12.5 59.6875 12.5 59.6875s11.25-35 16.25-45.9375z" transform="translate(-.480566 .409517) scale(.94678)"/>
  <path fill="none" stroke="#42667e" stroke-width="1pt" d="m30.378545 16.750836 40.5994 10.7886m-43.5348058-3.63290543 40.22411187 10.95669738M23.848577 32.9338l40.5994 10.7886M17.88643 49.9685l40.5994 10.7886m-43.5347998-3.63290243 40.22411187 10.95669738M20.9131722 40.08949757l40.22411187 10.95669738"/>
  <path fill="none" stroke="#414141" stroke-linecap="round" stroke-linejoin="round" stroke-width="3.125" d="M6.52997 44.858c-5.01578-3.265-3.79143-10.5612 1.98737-10.7532 5.62856-.4708 10.41006 7.0624 7.09776 11.321"/>
  <path fill="none" stroke="#414141" stroke-linecap="round" stroke-linejoin="round" stroke-width="3.125" d="M10.220823 35.488913c-5.01578-3.265-3.79143-10.5612 1.98737-10.7532 5.62856-.4708 10.41006 7.0624 7.09776 11.321"/>
  <path fill="none" stroke="#414141" stroke-linecap="round" stroke-linejoin="round" stroke-width="3.125" d="M13.627762 26.11983c-5.01578-3.265-3.79143-10.5612 1.98737-10.7532 5.62856-.4708 10.41006 7.0624 7.09776 11.321"/>
  <path fill="none" stroke="#b9b9b9" stroke-linecap="round" stroke-linejoin="round" stroke-width=".75" d="M12.776022 24.55831c-3.59622-1.7035-2.93969-9.5675 2.83911-9.7595 5.62856-.4708 10.26806 6.3526 8.09146 11.321"/>
  <path fill="none" stroke="#b9b9b9" stroke-linecap="round" stroke-linejoin="round" stroke-width=".75" d="M9.369083 33.927395c-3.59622-1.7035-2.93969-9.5675 2.83911-9.7595 5.62856-.4708 10.26806 6.3526 8.09146 11.321"/>
  <path fill="none" stroke="#b9b9b9" stroke-linecap="round" stroke-linejoin="round" stroke-width=".75" d="M5.67823 43.296482c-3.59622-1.7035-2.93969-9.5675 2.83911-9.7595 5.62856-.4708 10.26806 6.3526 8.09146 11.321"/>
  <g transform="translate(31.51554 -.537227) scale(.69841)">
    <defs>
      <linearGradient id="d">
        <stop offset="0" stop-color="#b5772d"/>
        <stop offset="1" stop-color="#fff" stop-opacity="0"/>
      </linearGradient>
      <linearGradient id="c">
        <stop offset="0" stop-color="#700"/>
        <stop offset="1" stop-color="#fff" stop-opacity="0"/>
      </linearGradient>
      <linearGradient xlink:href="#c" id="e" x1="66.331696" x2="63.465496" y1="23.212469" y2="20.962799" gradientTransform="scale(1.00452 .9955)" gradientUnits="userSpaceOnUse" spreadMethod="pad"/>
      <linearGradient xlink:href="#d" id="f" x1="56.327614" x2="51.654526" y1="43.377247" y2="39.762909" gradientTransform="scale(.91266 1.0957)" gradientUnits="userSpaceOnUse" spreadMethod="pad"/>
    </defs>
    <path fill-opacity=".28318599" fill-rule="evenodd" d="M13.151409 85.049875c8.57605-2.3515 21.57435-4.5519 30.77285-10.2232 16.8754-9.821 25.9021-30.2592 36.3454-46.3047.8299-13.2791-12.3423-19.61898-17.322-16.71425-12.6565 16.59875-21.5783 34.65005-35.6873 47.09905-4.3572 10.5817-14.31646 26.7655-14.10895 26.1431z"/>
    <path fill-rule="evenodd" d="M9.33685 82.1156c8.57605-2.3515 19.22695-7.1928 28.42545-12.864 16.8754-9.821 26.4889-30.8461 36.9322-46.8916.8299-13.27908-10.5817-16.39128-15.5614-13.48655C46.4766 25.4722 37.5548 43.5235 23.4458 55.9725 19.0886 66.5542 9.12934 82.738 9.33685 82.1156z"/>
    <path fill="#be6d6d" fill-rule="evenodd" d="M71.9972 20.9076c-1.729 2.4898-3.4581 4.9796-5.1871 7.4694-2.2823-5.3946-4.9796-8.0919-11.8266-8.7143 2.2132-2.6973 4.4263-5.3946 6.6395-8.0919 5.5329-.6225 9.8209 4.1497 10.3742 9.3368z"/>
    <path fill="#ffbc24" fill-rule="evenodd" d="M54.776 20.9076c5.3946-.3458 9.1293 3.6656 11.2041 8.2994-8.4377 13.6248-15.423 27.0422-29.6703 37.7622 0 0-3.5272-10.1668-8.7143-8.9218 6.432-7.262 21.3709-28.0104 27.1805-37.1398z"/>
    <path fill="#e9dbb9" fill-rule="evenodd" d="M27.0767 58.6698c4.6684-.2421 8.6106 5.3255 7.5732 8.7144-2.0057 1.5215-5.2562 3.0431-7.2619 4.5646-.3458-2.7664-2.144-4.9104-6.0171-4.5646 1.729-2.974 3.9768-5.7404 5.7058-8.7144z"/>
    <path fill="#586f93" fill-rule="evenodd" d="M21.7859 66.9692c3.5618-.8299 5.0488 2.6973 5.8096 4.7722l-13.2791 6.017 7.4695-10.7892z"/>
    <path fill="url(#e)" fill-rule="evenodd" d="M71.9972 20.9076c-1.729 2.4898-3.4581 4.9796-5.1871 7.4694-2.2823-5.3946-4.9796-8.0919-11.8266-8.7143 2.2132-2.6973 4.4263-5.3946 6.6395-8.0919 5.5329-.6225 9.8209 4.1497 10.3742 9.3368z"/>
    <path fill="#fff" fill-rule="evenodd" d="m62.8679 12.1932-5.3946 6.847 2.9048 1.0374 5.3946-6.432-2.9048-1.4524z"/>
    <path fill="url(#f)" fill-rule="evenodd" d="M54.776 20.9076c5.3946-.3458 9.1293 3.6656 11.2041 8.2994-8.4377 13.6248-15.423 27.0422-29.6703 37.7622 0 0-3.5272-10.1668-8.7143-8.9218 6.432-7.262 21.3709-28.0104 27.1805-37.1398z"/>
    <path fill="#fff" fill-rule="evenodd" d="M29.6703 56.18c1.2449.7608 2.4898 1.5215 3.7347 2.2823 9.1294-10.8584 13.2791-21.9242 25.5207-33.82-1.1758-.7608-2.3515-1.5215-3.5273-2.2823-7.3311 12.7257-15.6997 25.0365-25.7281 33.82z"/>
    <path fill="#9c7850" fill-rule="evenodd" d="M34.7538 67.2805c.2074-2.1786-.3113-3.7348-1.4525-5.4984-1.5215 3.3889-3.873 5.8441-7.1582 6.6395-.7262.6224 1.2449 1.9711 1.4524 3.216 1.8674-1.1412 7.1583-3.7347 7.1583-4.3571z"/>
  </g>
</svg>